<?xml version="1.0" ?><svg data-name="Layer 1" id="Layer_1" viewBox="0 0 64 64" xmlns="http://www.w3.org/2000/svg"><path d="M46.958,42.1712A14.9968,14.9968,0,0,0,33,28.0507V27a1,1,0,0,0-2,0v1.0507A14.9967,14.9967,0,0,0,17.042,42.1712,2.9918,2.9918,0,0,0,18,48H46a2.9918,2.9918,0,0,0,.958-5.8288ZM32,30A13.0086,13.0086,0,0,1,44.9493,42H19.0507A13.0086,13.0086,0,0,1,32,30ZM46,46H18a1,1,0,0,1,0-2H46a1,1,0,0,1,0,2ZM56.9883,19.8481,55.04,7.1864A2.9831,2.9831,0,0,0,56,5V3a3.0033,3.0033,0,0,0-3-3H11A3.0033,3.0033,0,0,0,8,3V5a2.9831,2.9831,0,0,0,.96,2.1864L7.0117,19.8481A.9914.9914,0,0,0,7,20V61a3.0033,3.0033,0,0,0,3,3H54a3.0033,3.0033,0,0,0,3-3V20A.9914.9914,0,0,0,56.9883,19.8481ZM10,3a1.0009,1.0009,0,0,1,1-1H53a1.0009,1.0009,0,0,1,1,1V5a1.0009,1.0009,0,0,1-1,1H35V4a1,1,0,0,0-1-1H30a1,1,0,0,0-1,1V6H11a1.0009,1.0009,0,0,1-1-1ZM33,5v6H31V5ZM55,61a1.0009,1.0009,0,0,1-1,1H10a1.0009,1.0009,0,0,1-1-1V20.0767L10.8584,8H29v4a1,1,0,0,0,1,1h4a1,1,0,0,0,1-1V8H53.1416L55,20.0767Z"/></svg>